<?xml version="1.0" encoding="utf-8"?>
<!-- Generator: Adobe Illustrator 22.0.1, SVG Export Plug-In . SVG Version: 6.00 Build 0)  -->
<svg version="1.1" id="Layer_1" xmlns="http://www.w3.org/2000/svg" xmlns:xlink="http://www.w3.org/1999/xlink" x="0px" y="0px"
	 viewBox="0 0 80 80" style="enable-background:new 0 0 80 80;" xml:space="preserve">
<style type="text/css">
	.st0{fill:#585858;}
	.st1{fill:#59595C;}
</style>
<g>
	<path class="st1" d="M27.4,50.8c1,0,2.1-0.3,3-0.9l4.6-2.8v4.6c0,0.5,0.1,1,0.1,1.5c-0.3,1.2-0.2,2.3-0.2,2.6l0.2,8.3
		c0,0,0.1,1.7,1.1,3.5c0.9,1.8,2.9,4,7.3,4.1c3.1,0.1,6,0.1,8.3,0.1c1.2,0.8,2.8,1.4,5,1.4c3.4,0.1,6,0.1,7.8,0.1c2,0,3,0,3,0
		c3.6,0.1,6.6-2.8,6.7-6.4c0.1-3.6-2.7-6.6-6.4-6.7l-5.1,0l0-4.6c0.8,0.5,1.6,0.8,2.5,0.9c0.2,0,0.4,0,0.6,0c1.1,0,2.2-0.4,3.1-1.1
		c2.2-1.8,2.5-5.2,0.6-7.5L61,37.1c-0.7-0.8-1.5-1.4-2.4-1.8c-0.7-0.7-1.5-1.3-2.4-1.9c2.9-2.6,4.8-6.4,4.8-10.7
		c0-6.6-4.5-12.2-10.7-13.9C50.6,8,50.8,7,50.8,5.8H49c0,1.1-0.2,2-0.4,2.8c-0.6-0.1-1.3-0.1-2-0.1c-7.9,0-14.4,6.5-14.4,14.4
		c0,4.3,1.9,8.2,5,10.9c-0.2,0.1-0.4,0.2-0.5,0.3L25,41.1c-2.6,1.6-3.5,4.9-2,7.3C23.9,50,25.6,50.8,27.4,50.8z M47.4,10.5
		c-1.4,1.5-3.3,1.6-3.7,1.6l0,1.8c0.1,0,3.7-0.1,5.7-3.1C55,12.1,59,17,59,22.8c0,3.9-1.8,7.4-4.7,9.7c-0.2,0.2-0.4,0.3-0.6,0.5
		c-0.2,0.2-0.5,0.3-0.7,0.5c-0.3,0.2-0.6,0.3-0.9,0.5c-0.2,0.1-0.4,0.2-0.7,0.3c-0.2,0.1-0.4,0.2-0.6,0.2c-1.3,0.5-2.7,0.7-4.2,0.7
		c-1.1,0-2.1-0.1-3-0.4c-0.2-0.1-0.4-0.1-0.6-0.2c-0.2-0.1-0.5-0.2-0.7-0.2c-0.1-0.1-0.3-0.1-0.4-0.1c-0.1,0-0.2-0.1-0.2-0.1
		c-0.2-0.1-0.3-0.2-0.5-0.2c0,0-0.1,0-0.1-0.1c-0.2-0.1-0.4-0.2-0.5-0.3c0,0,0,0-0.1,0c-0.2-0.1-0.4-0.3-0.7-0.4
		c-3.3-2.2-5.5-6-5.5-10.3c0-6.8,5.6-12.4,12.4-12.4C46.9,10.4,47.2,10.4,47.4,10.5z M59.1,71.2c-0.2,0-0.4,0-0.7,0
		c-0.5,0-1.1,0-1.6,0c-1.4,0-2.5-0.3-3.3-0.7c-0.1,0-0.1,0-0.2-0.1c-0.5-0.3-1-0.6-1.3-0.9c-1.4-1.3-1.5-3-1.5-3.3L50.4,64
		c3.4-0.3,5.8-1.7,7.5-3.2c0,0,0.1-0.1,0.1-0.1c0.3-0.3,0.5-0.5,0.8-0.8c0.1-0.1,0.1-0.1,0.2-0.2c0.2-0.2,0.4-0.4,0.5-0.6
		c0.5-0.6,0.9-1.2,1.2-1.8l0,2.6l0,0.9l0,0.5l0,0.8l0.6,0l0.6,0l0.6,0l5.4,0c2.5,0.1,4.5,2.2,4.4,4.7c-0.1,2.5-2.2,4.5-4.7,4.4
		C67.6,71.2,64.6,71.3,59.1,71.2z M43.6,36.9c0.2,0,0.5,0.1,0.7,0.1c0.1,0,0.2,0,0.4,0.1c0.6,0.1,1.3,0.1,1.9,0.1
		c1.3,0,2.5-0.2,3.7-0.5c-0.7,1.3-2.1,2.3-3.8,2.3c-0.6,0-1.2-0.1-1.8-0.4c-0.1,0-0.2-0.1-0.3-0.2c-0.2-0.1-0.5-0.3-0.7-0.5
		c-0.3-0.3-0.6-0.5-0.8-0.9c-0.1-0.1-0.2-0.3-0.2-0.4c0,0,0.1,0,0.1,0C43.1,36.8,43.3,36.9,43.6,36.9z M68,49.1
		c1.2,1.5,1.1,3.6-0.3,4.7c-0.6,0.5-1.4,0.7-2.2,0.6c-0.9-0.1-1.8-0.6-2.5-1.4l-0.4-0.5L62.2,52L62,51.7l-0.3-0.3l-0.7-0.8l-0.2-0.2
		l-0.5-0.6l-5.9-7.4c-1.2-1.5-1.1-3.6,0.3-4.7c0.5-0.4,1.2-0.6,1.8-0.6c0.8,0,1.6,0.3,2.3,0.9c0.2,0.2,0.4,0.3,0.5,0.5l1.2,1.5
		l1,1.2L68,49.1z M35,42.7v2.1l-5.6,3.4c-1.6,1-3.7,0.6-4.7-0.9c-0.9-1.5-0.3-3.5,1.4-4.5l11.7-7.2c0.1,0,0.1-0.1,0.2-0.1
		C36.1,37.5,35,40,35,42.7z M37.1,64L36.9,58c1.9,2.6,5.5,6,11.5,6.1l0.1,2.1c0,0,0.1,1.6,1,3.2c-1.9,0-4-0.1-6.2-0.2
		C37.4,68.9,37.1,64.5,37.1,64z"/>
	<path class="st1" d="M12.3,74.3h4c2.3,0,4.1-1.9,4.1-4.1v-4c0-2.3-1.9-4.1-4.1-4.1h-4c-2.3,0-4.1,1.9-4.1,4.1v4
		C8.1,72.5,10,74.3,12.3,74.3z M12.3,64.1h4c1.2,0,2.1,1,2.1,2.1v4c0,1.2-1,2.1-2.1,2.1h-4c-1.2,0-2.1-1-2.1-2.1v-4
		C10.1,65,11.1,64.1,12.3,64.1z"/>
	<path class="st1" d="M14.3,60.1l5.7,1.6c0.4,0.1,0.7,0.2,1.1,0.2c0.7,0,1.4-0.2,1.8-0.7c0.7-0.7,1-1.7,0.7-2.9L22,50.9
		c-0.3-1.2-0.9-2-1.8-2.2c-0.9-0.2-1.9,0.2-2.7,1.1l-4.7,5.4c-0.8,0.9-1,1.9-0.8,2.9C12.4,59,13.2,59.7,14.3,60.1z M21.5,59.7
		c-0.2,0.2-0.5,0.2-1,0.1l-5.7-1.6c-0.5-0.1-0.8-0.4-0.8-0.6c-0.1-0.3,0.1-0.6,0.4-1l4.7-5.4l0,0c0.3-0.4,0.6-0.5,0.6-0.5
		c0,0,0,0,0,0c0,0,0.2,0.2,0.3,0.7l1.6,7.4C21.8,59.2,21.7,59.5,21.5,59.7z"/>
	<path class="st1" d="M52,26c0.8,0,1.4-0.6,1.4-1.4c0-0.8-0.6-1.4-1.4-1.4c-0.8,0-1.4,0.6-1.4,1.4C50.6,25.4,51.2,26,52,26z"/>
	<path class="st1" d="M41,26c0.8,0,1.4-0.6,1.4-1.4c0-0.8-0.6-1.4-1.4-1.4c-0.8,0-1.4,0.6-1.4,1.4C39.5,25.4,40.2,26,41,26z"/>
	<path class="st1" d="M13.5,80h53C74,80,80,74,80,66.5v-53C80,6.1,74,0,66.5,0h-53C6.1,0,0,6.1,0,13.5v53C0,74,6.1,80,13.5,80z
		 M3,13.5C3,7.7,7.7,3,13.5,3h53C72.3,3,77,7.7,77,13.5v53C77,72.3,72.3,77,66.5,77h-53C7.7,77,3,72.3,3,66.5V13.5z"/>
</g>
</svg>
