<?xml version="1.0" encoding="utf-8"?>
<!-- Generator: Adobe Illustrator 22.0.1, SVG Export Plug-In . SVG Version: 6.00 Build 0)  -->
<svg version="1.1" id="Layer_1" xmlns="http://www.w3.org/2000/svg" xmlns:xlink="http://www.w3.org/1999/xlink" x="0px" y="0px"
	 viewBox="0 0 80 80" style="enable-background:new 0 0 80 80;" xml:space="preserve">
<style type="text/css">
	.st0{fill:#585858;}
	.st1{fill:#59595C;}
</style>
<g>
	<path class="st1" d="M49.2,31.5L49.2,31.5c0,0,2,2.1,5.3,1.7c0.1,0,0.1,0,0.2,0l0,0c1-0.1,2-0.4,3-0.8c2.8-1.3,5.3-4,6.3-6.8
		c1.8-4.8-0.7-10.2-5.6-12c-4.8-1.8-10.2,0.7-12,5.6C45,22.9,45.9,28.6,49.2,31.5z M48.1,19.8c1.1-3,3.9-5,7.1-5
		c0.9,0,1.7,0.2,2.6,0.5c3.9,1.4,5.9,5.8,4.5,9.7c-0.9,2.4-3,4.6-5.4,5.7c-0.5,0.2-1.2,0.5-2,0.6l1.1-3.1c0.2-0.4-0.1-0.9-0.6-1.1
		c-0.5-0.2-1,0-1.2,0.4l-1.4,3.8c-0.3,0-0.5-0.1-0.8-0.2l0,0L51.9,31c-0.1,0-0.1-0.1-0.2-0.1l1.4-3.8c0.2-0.4-0.1-0.9-0.6-1.1
		c-0.5-0.2-1,0-1.2,0.4l-1.2,3.3C47.8,27.6,46.9,23.1,48.1,19.8z"/>
	<path class="st1" d="M54.1,34.3L50.5,33c0,0,0,0,0,0c0,0,0,0,0,0L49,32.5c-0.5-0.2-1.2,0.6-1.6,1.7c-0.4,1.1-0.3,2.1,0.2,2.3
		l5.1,1.8c0.5,0.2,1.2-0.6,1.6-1.7C54.6,35.5,54.5,34.5,54.1,34.3z"/>
	<path class="st1" d="M61.9,12.3c0.7-1.6,1.4-3.2,2.1-4.7c0.6-1.4-1.5-2.4-2.2-1c-0.7,1.6-1.4,3.2-2.1,4.7
		C59.1,12.6,61.3,13.7,61.9,12.3z"/>
	<path class="st1" d="M66.7,17.2c1.4-1.1,2.7-2.1,4.1-3.2c1.2-0.9-0.2-2.9-1.4-2c-1.4,1.1-2.7,2.1-4.1,3.2
		C64.1,16.1,65.5,18.1,66.7,17.2z"/>
	<path class="st1" d="M67.4,24.1c1.7,0.1,3.5,0.2,5.2,0.3c1.5,0.1,2-2.3,0.4-2.4c-1.7-0.1-3.5-0.2-5.2-0.3
		C66.3,21.7,65.9,24,67.4,24.1z"/>
	<path class="st1" d="M53.7,11.1c-0.1-1.7-0.3-3.4-0.4-5.2c-0.1-1.5-2.5-1.3-2.4,0.2c0.1,1.7,0.3,3.4,0.4,5.2
		C51.5,12.9,53.9,12.7,53.7,11.1z"/>
	<path class="st1" d="M44.9,15.3c0.9,1.2,2.9-0.1,1.9-1.4c-1-1.4-2-2.8-3.1-4.2c-0.9-1.2-2.9,0.1-2,1.4
		C42.9,12.5,43.9,13.9,44.9,15.3z"/>
	<path class="st1" d="M21.7,64.3c-1.2,0-2.1,0.9-2.1,2.1c0,1.2,0.9,2.1,2.1,2.1c1.2,0,2.1-0.9,2.1-2.1
		C23.8,65.2,22.9,64.3,21.7,64.3z"/>
	<path class="st1" d="M41.5,64.3c-1.2,0-2.1,0.9-2.1,2.1c0,1.2,1,2.1,2.1,2.1c1.2,0,2.1-0.9,2.1-2.1C43.6,65.2,42.7,64.3,41.5,64.3z
		"/>
	<path class="st1" d="M13.5,80h0.9h0.7h0.2H16h0.8H17h0.8h27h0.8h0.2h0.8h0.7h0.2h0.7h18.2C74,80,80,74,80,66.5v-53
		C80,6.1,74,0,66.5,0h-53C6.1,0,0,6.1,0,13.5v53C0,74,6.1,80,13.5,80z M47.9,77H14.7c-3.2-3.8-5.1-8.7-5.1-13.9
		c0-10.6,7.5-19.5,17.9-21.3c2.7,3.9,7.5,4.5,7.5,4.5l0.5,0l0.2-2.3l-0.5,0c-0.1,0-2.9-0.3-5.1-2.5c0.4,0,0.8-0.1,1.1-0.1
		c12,0,21.7,9.7,21.7,21.7C53,68.3,51.1,73.2,47.9,77z M3,13.5C3,7.7,7.7,3,13.5,3h53C72.3,3,77,7.7,77,13.5v53
		C77,72.3,72.3,77,66.5,77H50.8c2.9-4,4.5-8.9,4.5-13.9c0-13.2-10.8-24-24-24c-0.9,0-1.7,0.1-2.6,0.2c-0.4-0.9-0.6-1.9-0.7-2.9
		l0-0.5L25.6,36l0,0.5c0.1,1.1,0.3,2.1,0.7,3.1c-11.1,2.3-19,12.1-19,23.5c0,5,1.6,9.8,4.3,13.8C6.8,76,3,71.7,3,66.5V13.5z"/>
</g>
</svg>
