<?xml version="1.0" encoding="utf-8"?>
<!-- Generator: Adobe Illustrator 22.0.1, SVG Export Plug-In . SVG Version: 6.00 Build 0)  -->
<svg version="1.1" id="Layer_1" xmlns="http://www.w3.org/2000/svg" xmlns:xlink="http://www.w3.org/1999/xlink" x="0px" y="0px"
	 viewBox="0 0 80 80" style="enable-background:new 0 0 80 80;" xml:space="preserve">
<style type="text/css">
	.st0{fill:#585858;}
	.st1{fill:#59595C;}
</style>
<g>
	<path class="st1" d="M59.6,23.6c4.6,0,8.4-3.8,8.4-8.4c0-4.6-3.8-8.4-8.4-8.4c-4.6,0-8.4,3.8-8.4,8.4C51.2,19.8,55,23.6,59.6,23.6z
		 M63.7,13c0.5,0,0.9,0.4,0.9,0.9c0,0.5-0.4,0.9-0.9,0.9c-0.5,0-0.9-0.4-0.9-0.9C62.8,13.4,63.2,13,63.7,13z M59.6,18.4
		c1.1,0,2-0.9,2-2h2c0,2.2-1.8,4-4,4s-4-1.8-4-4h2C57.6,17.5,58.5,18.4,59.6,18.4z M55.5,13c0.5,0,0.9,0.4,0.9,0.9
		c0,0.5-0.4,0.9-0.9,0.9s-0.9-0.4-0.9-0.9C54.6,13.4,55,13,55.5,13z"/>
	<path class="st1" d="M21.7,64.3c-1.2,0-2.1,0.9-2.1,2.1c0,1.2,0.9,2.1,2.1,2.1c1.2,0,2.1-0.9,2.1-2.1
		C23.8,65.2,22.9,64.3,21.7,64.3z"/>
	<path class="st1" d="M41.5,64.3c-1.2,0-2.1,0.9-2.1,2.1c0,1.2,1,2.1,2.1,2.1c1.2,0,2.1-0.9,2.1-2.1C43.6,65.2,42.7,64.3,41.5,64.3z
		"/>
	<path class="st1" d="M13.5,80h0.9h0.7h0.2H16h0.8H17h0.8h27h0.8h0.2h0.8h0.7h0.2h0.7h18.2C74,80,80,74,80,66.5v-53
		c0-4.3-2.1-8.2-5.3-10.7C72.5,1.1,69.6,0,66.5,0H46.9H13.5C6.1,0,0,6.1,0,13.5v53C0,74,6.1,80,13.5,80z M47.9,77H14.7
		c-3.2-3.8-5.1-8.7-5.1-13.9c0-10.6,7.5-19.5,17.9-21.3c2.7,3.9,7.5,4.5,7.5,4.5l0.5,0l0.2-2.3l-0.5,0c-0.1,0-2.9-0.3-5.1-2.5
		c0.4,0,0.8-0.1,1.1-0.1c12,0,21.7,9.7,21.7,21.7C53,68.3,51.1,73.2,47.9,77z M59.6,4.7c5.7,0,10.4,4.7,10.4,10.4
		s-4.7,10.4-10.4,10.4c-5.7,0-10.4-4.7-10.4-10.4S53.9,4.7,59.6,4.7z M3,13.5C3,7.7,7.7,3,13.5,3h30.6h1.3c-2.3,3.1-3.7,6.9-3.7,11
		c0,10.2,8.3,18.4,18.5,18.4c7.5,0,14-4.5,16.8-10.9v0.8v44.3C77,72.3,72.3,77,66.5,77H50.8c2.9-4,4.5-8.9,4.5-13.9
		c0-8.5-4.5-16.1-11.2-20.3c0.4-0.4,0.6-0.9,0.6-1.4c0-1.2-0.9-2.1-2.1-2.1c-1,0-1.9,0.7-2.1,1.7c-2.8-1.2-5.9-1.8-9.2-1.8
		c-0.9,0-1.7,0.1-2.6,0.2c-0.4-0.9-0.6-1.9-0.7-2.9l0-0.5L25.6,36l0,0.5c0.1,1.1,0.3,2.1,0.7,3.1c-11.1,2.3-19,12.1-19,23.5
		c0,5,1.6,9.8,4.3,13.8C6.8,76,3,71.7,3,66.5V13.5z"/>
	<path class="st1" d="M47.4,38.2c1.7,0,3-1.3,3-3c0-1.7-1.3-3-3-3c-1.7,0-3,1.3-3,3C44.4,36.8,45.7,38.2,47.4,38.2z"/>
</g>
</svg>
