<?xml version="1.0" encoding="utf-8"?>
<!-- Generator: Adobe Illustrator 22.0.1, SVG Export Plug-In . SVG Version: 6.00 Build 0)  -->
<svg version="1.1" id="Layer_1" xmlns="http://www.w3.org/2000/svg" xmlns:xlink="http://www.w3.org/1999/xlink" x="0px" y="0px"
	 viewBox="0 0 80 80" style="enable-background:new 0 0 80 80;" xml:space="preserve">
<style type="text/css">
	.st0{fill:#585858;}
	.st1{fill:#59595C;}
</style>
<g>
	<path class="st1" d="M21.6,65.5c-1.2,0-2.1,0.9-2.1,2.1c0,1.2,0.9,2.1,2.1,2.1c1.2,0,2.1-0.9,2.1-2.1
		C23.7,66.5,22.7,65.5,21.6,65.5z"/>
	<path class="st1" d="M41.1,65.5c-1.2,0-2.1,0.9-2.1,2.1c0,1.2,0.9,2.1,2.1,2.1c1.1,0,2.1-0.9,2.1-2.1
		C43.1,66.5,42.2,65.5,41.1,65.5z"/>
	<path class="st1" d="M13.5,80h53C74,80,80,74,80,66.5v-53C80,6.1,74,0,66.5,0h-53C6.1,0,0,6.1,0,13.5v53C0,74,6.1,80,13.5,80z
		 M13.8,77L13.8,77l-0.1-0.1c-0.1-0.1-0.2-0.3-0.3-0.4c-0.1-0.2-0.2-0.3-0.3-0.5c-2.3-3.5-3.5-7.5-3.5-11.7c0-10.3,7.3-19.1,17.3-21
		c0.1,0.2,0.2,0.3,0.4,0.5c2.7,3.2,7.2,3.6,7.3,3.6l0.5,0l0.2-2.3l-0.5,0c-0.1,0-3-0.3-5.1-2.2c0.4,0,0.9,0,1.3,0
		c11.8,0,21.4,9.6,21.4,21.4c0,4.2-1.2,8.2-3.5,11.7c-0.1,0.2-0.2,0.3-0.3,0.5c-0.1,0.2-0.2,0.3-0.3,0.5l0,0l0,0L13.8,77L13.8,77z
		 M3,13.5C3,7.7,7.7,3,13.5,3h53C72.3,3,77,7.7,77,13.5v53C77,72.3,72.3,77,66.5,77H51l0,0l0.1-0.2h0c0.1-0.1,0.1-0.2,0.2-0.3
		c0.1-0.2,0.2-0.3,0.3-0.5c2-3.5,3.1-7.5,3.1-11.7c0-13.1-10.6-23.7-23.7-23.7c-0.9,0-1.9,0.1-2.8,0.2c0-0.1-0.1-0.1-0.1-0.2l0,0
		c-0.5-1.1-0.6-2.4-0.5-3.8l0-0.5l-2.3-0.2l0,0.5c-0.1,1.4,0,2.8,0.4,4l0,0l0.2,0.5l0,0l0,0c-10.7,2.4-18.5,12-18.5,23.1
		c0,4.1,1.1,8.1,3.1,11.6c0.1,0.2,0.2,0.3,0.3,0.5c0,0.1,0.1,0.1,0.1,0.2C6.3,75.5,3,71.4,3,66.5V13.5z"/>
	<polygon class="st1" points="49.1,35.4 55.8,32 62.4,35.6 61.3,28.1 66.7,23 59.3,21.8 56,15 52.6,21.7 45.2,22.7 50.5,28 	"/>
	<path class="st1" d="M39.8,32.6c0.1,0,0.2,0,0.3,0l5.2-1.6c0.5-0.2,0.8-0.7,0.7-1.3c-0.2-0.5-0.7-0.8-1.3-0.7l-5.2,1.6
		c-0.5,0.2-0.8,0.7-0.7,1.3C39,32.3,39.4,32.6,39.8,32.6z"/>
	<path class="st1" d="M56,36.2C56,36.2,56,36.2,56,36.2c-0.6,0-1,0.5-1,1l0,5.4c0,0.6,0.5,1,1,1c0,0,0,0,0,0c0.6,0,1-0.5,1-1l0-5.4
		C57,36.6,56.5,36.2,56,36.2z"/>
	<path class="st1" d="M48.6,17c0.2,0.3,0.5,0.5,0.9,0.5c0.2,0,0.3,0,0.5-0.1c0.5-0.3,0.6-0.9,0.4-1.4l-2.7-4.7
		c-0.3-0.5-0.9-0.6-1.4-0.4c-0.5,0.3-0.6,0.9-0.4,1.4L48.6,17z"/>
	<path class="st1" d="M65.3,29.7c-0.2,0.5,0.1,1.1,0.7,1.3l5.2,1.6c0.1,0,0.2,0,0.3,0c0.4,0,0.8-0.3,1-0.7c0.2-0.5-0.1-1.1-0.7-1.3
		L66.5,29C66,28.9,65.5,29.2,65.3,29.7z"/>
	<path class="st1" d="M61.3,17.4c0.2,0.1,0.3,0.1,0.5,0.1c0.3,0,0.7-0.2,0.9-0.5l2.7-4.7c0.3-0.5,0.1-1.1-0.4-1.4
		c-0.5-0.3-1.1-0.1-1.4,0.4L60.9,16C60.6,16.5,60.8,17.1,61.3,17.4z"/>
</g>
</svg>
