<?xml version="1.0" encoding="utf-8"?>
<!-- Generator: Adobe Illustrator 22.0.1, SVG Export Plug-In . SVG Version: 6.00 Build 0)  -->
<svg version="1.1" id="Layer_1" xmlns="http://www.w3.org/2000/svg" xmlns:xlink="http://www.w3.org/1999/xlink" x="0px" y="0px"
	 viewBox="0 0 80 80" style="enable-background:new 0 0 80 80;" xml:space="preserve">
<style type="text/css">
	.st0{fill:#585858;}
	.st1{fill:#59595C;}
</style>
<g>
	<path class="st1" d="M74,2.2C71.8,0.8,69.3,0,66.5,0h-53c-2.7,0-5.3,0.8-7.4,2.2C4.7,3.1,3.5,4.3,2.6,5.6C1,7.8,0,10.6,0,13.5v53
		c0,2.9,1,5.7,2.6,7.9c1.6,2.2,3.9,3.9,6.5,4.9c1.4,0.5,2.9,0.8,4.4,0.8h53c1.6,0,3-0.3,4.4-0.8c2.3-0.8,4.4-2.2,5.9-4.1
		c2-2.3,3.1-5.4,3.1-8.6v-53c0-3.3-1.2-6.3-3.1-8.6C76.1,3.8,75.1,3,74,2.2z M24,47c-0.2,0-1.3-0.1-2.1-0.9c0.2,0,0.4,0,0.7,0
		c4.4,0,8,3.6,8,8c0,2.8-1.4,5.3-3.6,6.7c-0.2,0.1-0.3,0.2-0.5,0.3c0,0-0.1,0-0.1,0.1c-0.1,0.1-0.3,0.1-0.4,0.2c0,0,0,0,0,0
		c-0.1,0.1-0.3,0.1-0.4,0.2c-0.9,0.4-1.9,0.6-3,0.6c-0.9,0-1.8-0.2-2.6-0.4c-0.1,0-0.3-0.1-0.4-0.2c-0.1,0-0.2-0.1-0.3-0.2
		c0,0,0,0-0.1,0c-0.2-0.1-0.3-0.2-0.5-0.2c-0.2-0.1-0.3-0.2-0.5-0.3c-2.2-1.4-3.6-3.9-3.6-6.7c0-3.6,2.3-6.6,5.6-7.6
		c1.3,2.2,3.8,2.2,3.9,2.2h0.2l0-1.6L24,47z M20.5,64.2c0.1,0,0.1,0,0.2,0c0.6,0.1,1.2,0.1,1.8,0.1c0.7,0,1.4-0.1,2.1-0.2
		c0.2,0,0.3,0,0.5-0.1c0.1,0,0.3,0,0.4-0.1c0.3-0.1,0.6-0.1,0.9-0.2c0.1,0,0.2-0.1,0.4-0.1c-0.2,0.3-0.4,0.6-0.6,0.8
		c-0.2,0.3-0.5,0.5-0.8,0.7c-0.3,0.2-0.6,0.3-0.9,0.4c-0.5,0.2-1,0.3-1.6,0.3c-0.8,0-1.5-0.2-2.1-0.6c-0.3-0.2-0.6-0.4-0.9-0.6
		c-0.3-0.3-0.5-0.5-0.8-0.9c0.2,0,0.4,0.1,0.6,0.1C19.9,64.1,20.2,64.1,20.5,64.2z M49.2,70.4l-3,1.8c-0.5,0.3-1.1,0.4-1.6,0.3
		c-0.5-0.1-0.8-0.4-1.1-0.7c-0.2-0.4-0.3-0.8-0.2-1.3c0.1-0.5,0.5-1,1-1.3l5.3-3.2c-0.3,0.7-0.4,1.5-0.4,2.3V70.4z M59.7,48
		c-0.3,0-1.5-0.1-2.3-1.1c0.3,0,0.6,0,0.8,0c4.4,0,8,3.6,8,8c0,2.8-1.4,5.3-3.6,6.7c-0.2,0.1-0.3,0.2-0.5,0.3c0,0-0.1,0-0.1,0.1
		c-0.1,0.1-0.3,0.1-0.4,0.2c0,0,0,0,0,0c-0.1,0.1-0.3,0.1-0.4,0.2c-0.9,0.4-1.9,0.6-3,0.6c-0.9,0-1.8-0.2-2.6-0.4
		c-0.1,0-0.3-0.1-0.4-0.2c-0.1,0-0.2-0.1-0.4-0.2c0,0,0,0-0.1,0c-0.2-0.1-0.3-0.2-0.5-0.2c-0.2-0.1-0.3-0.2-0.5-0.3
		c-2.2-1.4-3.6-3.9-3.6-6.7c0-3.5,2.3-6.5,5.5-7.6c1.3,2.3,3.9,2.4,4,2.4h0.2l0-1.6L59.7,48z M56.1,65c0.1,0,0.2,0,0.3,0
		c0.6,0.1,1.2,0.1,1.7,0.1c0.7,0,1.4-0.1,2.1-0.2c0.1,0,0.3,0,0.4-0.1c0.2,0,0.3,0,0.5-0.1c0.3-0.1,0.6-0.1,0.9-0.2
		c0.1,0,0.3-0.1,0.4-0.1c-0.2,0.3-0.4,0.6-0.6,0.8c-0.2,0.3-0.5,0.5-0.8,0.7c-0.3,0.2-0.6,0.3-0.9,0.4c-0.5,0.2-1,0.3-1.6,0.3
		c-0.8,0-1.5-0.2-2.2-0.6c-0.3-0.2-0.6-0.4-0.9-0.6c-0.3-0.3-0.5-0.5-0.8-0.9c0.2,0,0.4,0.1,0.6,0.1C55.5,64.9,55.8,64.9,56.1,65z
		 M66.8,65.8l5.5,3.3l0,0c0.5,0.3,0.9,0.8,1,1.3c0.1,0.5,0,0.9-0.2,1.3c-0.2,0.4-0.6,0.6-1,0.7c-0.5,0.1-1.1,0-1.6-0.3l-3.1-1.9
		v-2.1C67.2,67.4,67.1,66.6,66.8,65.8z M77,13.5v53c0,0.6-0.1,1.1-0.1,1.7c-0.8,4.8-4.8,8.5-9.7,8.8c0.2-0.5,0.3-0.8,0.3-0.8
		l0.3-3.2l1.5,0.9c0.7,0.4,1.4,0.6,2.2,0.6c0.3,0,0.6,0,0.9-0.1c1-0.2,1.8-0.8,2.3-1.6c0.5-0.8,0.7-1.8,0.4-2.8
		c-0.3-1-0.9-2-1.9-2.5l-7.8-4.8c-0.2-0.1-0.4-0.2-0.6-0.3c2.1-1.8,3.4-4.5,3.4-7.5c0-5.5-4.5-10-10-10c-0.5,0-1,0.1-1.5,0.1
		c0-0.2,0-0.4,0-0.6v-0.2h-1.6v0.2c0,0.4,0,0.7,0.1,1c-4,1.3-6.9,5.1-6.9,9.5c0,3,1.3,5.7,3.4,7.5c-0.2,0.1-0.3,0.1-0.5,0.2
		l-7.8,4.8C42.4,68,41.7,69,41.4,70c-0.2,1-0.1,2,0.4,2.8c0.5,0.8,1.3,1.4,2.3,1.7c0.3,0.1,0.6,0.1,0.9,0.1c0.8,0,1.5-0.2,2.2-0.6
		l1.4-0.9v2.8l0.1,0.2c0,0,0.2,0.4,0.5,1H31c0.6-0.9,0.8-1.6,0.8-1.6l0.3-3.2l1.5,0.9c0.7,0.4,1.4,0.6,2.2,0.6c0.3,0,0.6,0,0.9-0.1
		c1-0.2,1.8-0.8,2.3-1.6c0.5-0.8,0.7-1.8,0.4-2.8c-0.3-1-0.9-2-1.9-2.5l-7.8-4.8c-0.2-0.1-0.4-0.2-0.6-0.3c2.1-1.8,3.4-4.5,3.4-7.5
		c0-5.5-4.5-10-10-10c-0.5,0-1,0-1.5,0.1c0-0.3-0.1-0.5-0.1-0.8v-0.2h-1.6v0.2c0,0.4,0,0.8,0.1,1.2c-4,1.3-6.9,5.1-6.9,9.5
		c0,3,1.3,5.7,3.4,7.5c-0.2,0.1-0.3,0.1-0.5,0.2l-7.8,4.8c-0.9,0.6-1.6,1.5-1.9,2.5c-0.2,1-0.1,2,0.4,2.8c0.5,0.8,1.3,1.4,2.3,1.7
		c0.3,0.1,0.6,0.1,0.9,0.1c0.8,0,1.5-0.2,2.2-0.6l1.4-0.9v2.8l0.1,0.2c0,0,0.3,0.8,1,1.8h-0.5C7.7,77,3,72.3,3,66.5v-53
		C3,7.7,7.7,3,13.5,3h53c5.2,0,9.5,3.8,10.4,8.8C77,12.4,77,12.9,77,13.5z M31.1,65l5.5,3.3l0,0c0.5,0.3,0.9,0.8,1,1.3
		c0.1,0.5,0,0.9-0.2,1.3c-0.2,0.4-0.6,0.6-1,0.7c-0.5,0.1-1.1,0-1.6-0.3l-3.1-1.9v-2.1C31.6,66.6,31.4,65.8,31.1,65z M14,65.1
		c-0.3,0.7-0.4,1.5-0.4,2.3v2.1l-3,1.8c-0.5,0.3-1.1,0.4-1.6,0.3c-0.4-0.1-0.8-0.4-1-0.7c-0.2-0.4-0.3-0.8-0.2-1.3
		c0.1-0.5,0.5-1,1-1.3L14,65.1z"/>
	<path class="st1" d="M19,54.5c-0.5,0-0.8,0.4-0.8,0.9c0,0.5,0.4,0.9,0.8,0.9c0.5,0,0.9-0.4,0.9-0.9S19.4,54.5,19,54.5z"/>
	<path class="st1" d="M26.4,56.2c0.5,0,0.9-0.4,0.9-0.9s-0.4-0.9-0.9-0.9c-0.5,0-0.9,0.4-0.9,0.9S25.9,56.2,26.4,56.2z"/>
	<path class="st1" d="M54.7,55.3c-0.5,0-0.8,0.4-0.8,0.9c0,0.5,0.4,0.9,0.8,0.9c0.5,0,0.9-0.4,0.9-0.9
		C55.5,55.6,55.1,55.3,54.7,55.3z"/>
	<path class="st1" d="M62.1,57c0.5,0,0.9-0.4,0.9-0.9c0-0.5-0.4-0.9-0.9-0.9c-0.5,0-0.9,0.4-0.9,0.9C61.2,56.6,61.6,57,62.1,57z"/>
	<path class="st1" d="M44.3,15c-2.6-2.9-7-4.8-12-4.8c-8,0-14.4,4.8-14.4,10.7c0,3.5,2,6.3,6.4,8.9c0,0-0.4,3.7-1.4,6.3
		c0,0-0.1,0.7,1,0.3c1.1-0.3,5.1-1.8,7.8-4.9c0.1-0.1,0.4,0,0.6,0c0.3,0,0.6,0,0.9,0c-0.7-1.3-1-2.7-1-4.1C32.3,21,37,16.4,44.3,15z
		"/>
	<path class="st1" d="M48.1,15.9c-0.4,0-0.8,0-1.2,0l0,0.1c-0.6,0-1.1,0.1-1.7,0.2c-7.1,1.1-11.6,5.3-11.7,11.1c0,1.3,0.4,2.7,1.1,4
		c0.1,0.2,0.3,0.5,0.4,0.7l-0.1,0.1c2.6,3.2,7.5,5.3,13,5.3c0.2,0,0.5-0.2,0.6,0c2.9,3.1,7.1,4.6,8.2,4.9C58.1,42.7,58,42,58,42
		c-1.1-2.7-1.5-6.4-1.5-6.4c4.6-2.6,6.7-5.4,6.7-8.9C63.3,20.7,56.5,15.9,48.1,15.9z"/>
</g>
</svg>
