<?xml version="1.0" encoding="utf-8"?>
<!-- Generator: Adobe Illustrator 22.0.1, SVG Export Plug-In . SVG Version: 6.00 Build 0)  -->
<svg version="1.1" id="Layer_1" xmlns="http://www.w3.org/2000/svg" xmlns:xlink="http://www.w3.org/1999/xlink" x="0px" y="0px"
	 viewBox="0 0 80 80" style="enable-background:new 0 0 80 80;" xml:space="preserve">
<style type="text/css">
	.st0{fill:#585858;}
	.st1{fill:#59595C;}
</style>
<g>
	<path class="st1" d="M68.6,52.2c-0.2-0.5-0.5-1-0.8-1.4c0.1-0.2,0.3-0.5,0.4-0.8c0.4-0.7,0.6-1.2,0.6-1.2l0-0.1v-1.7v-1.8v-5
		c0-0.7-0.1-1.3-0.3-1.9c0.2-1,0.1-2.1-0.5-2.9c-0.6-1-1.5-1.6-2.7-1.8c-0.2,0-0.3,0-0.5,0c-0.3-0.2-0.5-0.3-0.8-0.5
		c3.2-2,5.4-5.5,5.4-9.6c0-6.2-5-11.2-11.2-11.2c-0.8,0-1.5,0.1-2.3,0.2c0-0.3-0.1-0.7-0.1-1.1v-0.2H54v0.2c0,0.6,0.1,1.1,0.2,1.6
		c-4.1,1.6-7.1,5.7-7.1,10.4c0,4.2,2.3,7.8,5.7,9.7c-0.1,0-0.1,0.1-0.2,0.1c-0.9-0.1-1.9,0-2.8,0.6l-1.6,1c-1-0.5-2.2-0.8-3.4-0.8
		c-3,0-5.6,1.6-7,4l-7.6-4.6c-0.5-0.3-1-0.5-1.6-0.6c2.7-2,4.4-5.2,4.4-8.9c0-6.2-5-11.2-11.2-11.2c-0.7,0-1.5,0.1-2.2,0.2
		c-0.1-0.3-0.1-0.7-0.1-1.1v-0.2h-1.8v0.2c0,0.6,0.1,1.1,0.2,1.6c-4.2,1.6-7.3,5.7-7.3,10.5c0,3.8,1.9,7.1,4.8,9.2
		c-0.2,0.1-0.4,0.2-0.5,0.3c-0.2,0-0.3,0-0.5,0c-1.1,0.2-2.1,0.9-2.7,1.8c-0.5,0.9-0.7,1.9-0.5,3c-0.2,0.6-0.3,1.3-0.3,1.9v5h0v3.5
		l0,0.1c0,0,0.2,0.5,0.6,1.2c0.1,0.3,0.2,0.5,0.4,0.7c-0.3,0.4-0.6,0.9-0.8,1.4L6.7,63.7c-1,2.6,0.3,5.5,2.9,6.6
		c0.6,0.2,1.2,0.4,1.8,0.4c2,0,3.9-1.2,4.7-3.2l4.5-11.5c0-0.1,0-0.1,0.1-0.2c0.1,0,0.3,0,0.4,0h0.2c0,0,0,0,0,0c0.1,0,0.1,0,0.2,0
		c0.2,0,0.4,0,0.6,0c0.1,0.3,0.2,0.6,0.4,0.9l6.1,10.7c0.9,1.6,2.7,2.6,4.4,2.6c0.8,0,1.7-0.2,2.5-0.7c1.2-0.7,2-1.7,2.4-3.1
		c0.4-1.3,0.2-2.7-0.5-3.9l-6.1-10.7c-0.2-0.4-0.5-0.7-0.7-1c0.2-0.4,0.4-0.9,0.6-1.4c0-0.1,0-0.1,0-0.1l0-0.1l0,0
		c0.2-0.6,0.3-1.2,0.3-1.9v-1.3l0-0.5h0v-1.4l3.3,2c0.8,0.5,1.6,0.7,2.4,0.7c0.3,0,0.5,0,0.8-0.1c1.4,2.3,4,3.9,6.9,3.9
		c1.4,0,2.8-0.4,3.9-1c0.1,0.4,0.3,0.8,0.5,1.2c-0.3,0.3-0.5,0.6-0.7,1l-6.1,10.7l0,0c-1.4,2.4-0.5,5.5,1.9,6.9
		c0.8,0.4,1.6,0.7,2.5,0.7c0.5,0,0.9-0.1,1.4-0.2c1.3-0.4,2.4-1.2,3.1-2.4l6.1-10.7c0.2-0.3,0.3-0.6,0.4-0.9c0.2,0,0.4,0,0.6,0
		c0.1,0,0.1,0,0.2,0c0,0,0,0,0,0h0.2c0.1,0,0.3,0,0.4,0c0,0.1,0,0.1,0.1,0.2l4.5,11.5l0,0c0.8,2,2.7,3.2,4.7,3.2
		c0.6,0,1.2-0.1,1.8-0.4c2.6-1,3.9-4,2.9-6.6L68.6,52.2z M51.2,34.4c-0.5,0.4-0.9,0.9-1.3,1.4c-0.2-0.2-0.4-0.3-0.6-0.4l1.1-0.7
		C50.6,34.6,50.9,34.5,51.2,34.4z M65.5,66.6l-4.4-11.2c2.2-0.5,4-1.5,5.4-3c0.1,0.1,0.2,0.3,0.2,0.4l4.5,11.5
		c0.6,1.6-0.2,3.4-1.7,4C68,69,66.2,68.2,65.5,66.6z M45.4,67.5c-1.5-0.8-2-2.7-1.2-4.2l6.1-10.7c0-0.1,0.1-0.2,0.2-0.2
		c1.1,1.2,2.5,2.2,4.1,2.8c0.2,0.1,0.5,0.2,0.8,0.2c0.1,0,0.1,0,0.2,0.1c0.1,0,0.1,0,0.2,0.1c0,0.1,0,0.1-0.1,0.2l-6.1,10.7
		c-0.4,0.7-1.1,1.2-1.8,1.4C46.9,68,46.1,67.9,45.4,67.5z M48.5,47.2c0,0-0.1,0.1-0.1,0.1c-1,0.7-2.2,1.1-3.6,1.1
		c-2.1,0-4-1.1-5.1-2.7c-0.1-0.1-0.2-0.3-0.3-0.4c-0.1-0.1-0.2-0.3-0.2-0.5c-0.1-0.2-0.1-0.3-0.2-0.5c-0.1-0.2-0.1-0.4-0.2-0.6
		c-0.1-0.5-0.2-1-0.2-1.6c0-0.4,0-0.7,0.1-1c0-0.2,0.1-0.4,0.1-0.6c0.1-0.2,0.1-0.4,0.2-0.5c0.1-0.2,0.1-0.3,0.2-0.5
		c0.1-0.1,0.1-0.3,0.2-0.4c1.1-1.8,3.1-3.1,5.3-3.1c0.4,0,0.8,0,1.2,0.1c0.2,0,0.5,0.1,0.7,0.2c0.2,0.1,0.4,0.1,0.6,0.2
		c0.6,0.3,1.1,0.6,1.6,1c0.1,0.1,0.3,0.2,0.4,0.4c0.1,0.1,0.3,0.3,0.4,0.5c0.5,0.6,0.9,1.4,1.1,2.2c0,0.2,0.1,0.3,0.1,0.5
		c0,0.2,0.1,0.4,0.1,0.6c0,0.2,0,0.3,0,0.5c0,1.1-0.3,2.2-0.8,3.1c-0.1,0.2-0.2,0.3-0.3,0.5c-0.1,0.2-0.3,0.3-0.4,0.5c0,0,0,0,0,0
		c0,0,0,0,0,0c-0.1,0.2-0.3,0.3-0.4,0.4c0,0-0.1,0-0.1,0.1C48.8,47,48.7,47.1,48.5,47.2z M29.5,52.5l6.1,10.7l0,0
		c0.4,0.7,0.5,1.5,0.3,2.3c-0.2,0.8-0.7,1.4-1.4,1.8c-1.5,0.8-3.3,0.3-4.2-1.2l-6.1-10.7c0-0.1,0-0.1-0.1-0.2c0.1,0,0.1,0,0.2,0
		c0.1,0,0.1,0,0.2-0.1c0.3-0.1,0.5-0.1,0.8-0.2c1.7-0.6,3.1-1.6,4.1-2.8C29.4,52.4,29.5,52.4,29.5,52.5z M23,17.9h0.2l0-1.8l-0.2,0
		c-0.2,0-1.6-0.1-2.5-1.2c0.4-0.1,0.9-0.1,1.4-0.1c5.1,0,9.2,4.1,9.2,9.2c0,3.6-2.1,6.7-5,8.2c-0.2,0.1-0.3,0.2-0.5,0.2
		c0,0-0.1,0-0.1,0c-0.1,0.1-0.3,0.1-0.4,0.1c-0.1,0-0.2,0.1-0.4,0.1c-0.3,0.1-0.6,0.2-1,0.3c-0.6,0.1-1.2,0.2-1.9,0.2
		c-0.8,0-1.6-0.1-2.4-0.3c-0.3-0.1-0.5-0.2-0.8-0.2c-0.1,0-0.1,0-0.2-0.1c-0.1,0-0.2-0.1-0.3-0.1c-0.2-0.1-0.3-0.1-0.4-0.2
		c0,0,0,0,0,0c-3-1.5-5.1-4.6-5.1-8.2c0-3.9,2.5-7.3,6-8.6C20.1,17.8,23,17.9,23,17.9z M19,34.7c0.9,0.2,1.9,0.4,2.9,0.4
		c0.8,0,1.6-0.1,2.3-0.2c0.2,0,0.4-0.1,0.6-0.2c-0.2,0.4-0.5,0.8-0.9,1.1c-0.5,0.4-1.2,0.7-1.9,0.7c-0.1,0-0.2,0-0.3,0
		c-1.1-0.1-2-0.7-2.5-1.5C19.1,34.9,19,34.8,19,34.7z M14.9,35.5c0.2,0,0.3,0,0.5,0c0.5,0,0.9,0.1,1.4,0.4l8.9,5.4
		c0.6,0.4,1,0.9,1.2,1.6c0.1,0.5,0,1.1-0.2,1.5c-0.3,0.5-0.8,0.8-1.4,0.9c-0.3,0.1-0.6,0.1-1,0c-0.3-0.1-0.6-0.2-0.9-0.3l-8.9-5.4
		c-0.6-0.4-1-0.9-1.2-1.6c-0.1-0.5-0.1-1.1,0.2-1.5C13.8,35.9,14.3,35.6,14.9,35.5z M29.7,35.4l7.4,4.5c-0.2,0.7-0.3,1.5-0.3,2.3
		c0,0.8,0.1,1.6,0.4,2.4c-0.4,0-0.8-0.1-1.2-0.4l-4.4-2.7v-1.3C31.4,38.5,30.8,36.8,29.7,35.4z M59.7,17.9h0.2l0-1.9l-0.2,0
		c-0.4,0-2-0.1-3-1.6c0.5-0.1,1-0.1,1.6-0.1c5.1,0,9.2,4.1,9.2,9.2c0,3.5-2,6.5-4.8,8.1c-0.1,0.1-0.3,0.1-0.5,0.2
		c-0.2,0.1-0.3,0.1-0.5,0.2c-0.1,0-0.1,0-0.2,0.1c-0.3,0.1-0.7,0.2-1,0.3c-0.7,0.2-1.4,0.3-2.2,0.3c-0.7,0-1.3-0.1-2-0.2
		c-0.3-0.1-0.6-0.2-1-0.3c0,0,0,0,0,0c-0.1-0.1-0.3-0.1-0.4-0.2c-0.2-0.1-0.3-0.1-0.5-0.2c-3.1-1.5-5.3-4.6-5.3-8.3
		c0-3.8,2.4-7.1,5.7-8.5C56.4,17.8,59.7,17.9,59.7,17.9z M58.3,34.6c1.1,0,2.2-0.2,3.2-0.5c-0.1,0.2-0.2,0.4-0.3,0.5
		C60.8,35.4,60,35.9,59,36c-0.1,0-0.3,0-0.4,0c-1.3,0-2.3-0.7-2.9-1.8C56.5,34.5,57.4,34.6,58.3,34.6z M66.3,36.4
		c0.3,0.5,0.4,1.1,0.2,1.6c-0.2,0.6-0.6,1.1-1.1,1.5l-8.9,5.4c-0.3,0.2-0.6,0.3-0.9,0.3c-0.3,0.1-0.6,0.1-1,0
		c-0.6-0.1-1.1-0.4-1.4-0.9c-0.6-1-0.2-2.4,0.9-3.1l8.9-5.4c0.4-0.3,0.9-0.4,1.4-0.4c0.2,0,0.3,0,0.5,0C65.5,35.6,66,35.9,66.3,36.4
		z M13.3,52.5c1.4,1.4,3.2,2.5,5.4,3l-4.4,11.2c-0.6,1.6-2.4,2.4-4,1.7c-1.6-0.6-2.4-2.4-1.7-4l4.5-11.5
		C13.1,52.8,13.2,52.6,13.3,52.5z"/>
	<path class="st1" d="M17.8,26.3c0.5,0,0.9-0.4,0.9-0.9c0-0.5-0.4-0.9-0.9-0.9c-0.5,0-0.9,0.4-0.9,0.9
		C16.9,25.9,17.3,26.3,17.8,26.3z"/>
	<path class="st1" d="M26.2,26.3c0.5,0,0.9-0.4,0.9-0.9c0-0.5-0.4-0.9-0.9-0.9c-0.5,0-0.9,0.4-0.9,0.9
		C25.2,25.9,25.6,26.3,26.2,26.3z"/>
	<path class="st1" d="M54.3,25.7c0.5,0,0.9-0.4,0.9-0.9c0-0.5-0.4-0.9-0.9-0.9c-0.5,0-0.9,0.4-0.9,0.9
		C53.3,25.3,53.7,25.7,54.3,25.7z"/>
	<path class="st1" d="M62.6,25.7c0.5,0,0.9-0.4,0.9-0.9c0-0.5-0.4-0.9-0.9-0.9c-0.5,0-0.9,0.4-0.9,0.9
		C61.7,25.3,62.1,25.7,62.6,25.7z"/>
	<path class="st1" d="M66.5,0h-53C6.1,0,0,6.1,0,13.5v53C0,74,6.1,80,13.5,80h53C74,80,80,74,80,66.5v-53C80,6.1,74,0,66.5,0z
		 M77,66.5C77,72.3,72.3,77,66.5,77h-53C7.7,77,3,72.3,3,66.5v-53C3,7.7,7.7,3,13.5,3h53C72.3,3,77,7.7,77,13.5V66.5z"/>
</g>
</svg>
